# xmcd
#
# Track frame offsets:
#	150
#	20606
#	35959
#	52764
#	69104
#	87374
#	105456
#	128510
#	141612
#	160483
#	191827
#	214057
#	225648
#	244486
#	261018
#	285030
#	306170
#	321125
#
# Disc length: 4510 seconds
#
# Revision: 1
# Processed by: cddbd v1.5.2PL0 Copyright (c) Steve Scherf et al.
# Submitted via: audiograbber 1.83.01
#
DISCID=00119c12
DTITLE=Willie and Bobbie Nelson - Farther Along
DYEAR=2003
DGENRE=Gospel
TTITLE0=Have A Little Talk With Jesus
TTITLE1=I'll Fly Away
TTITLE2=Where The Soul Of Man
TTITLE3=Lily Of The Valley
TTITLE4=In The Sweet By And By
TTITLE5=Blood Of The Lamb
TTITLE6=Where He Leads Me
TTITLE7=Old Time Religion
TTITLE8=Thine The Glory
TTITLE9=Just A Closer Walk
TTITLE10=When We All Get To Heaven
TTITLE11=Kneel At The Feet
TTITLE12=Swing Low Sweet Chariot
TTITLE13=Just As I Am
TTITLE14=Farther Along
TTITLE15=I'd Rather Have Jesus
TTITLE16=What A Friend We Have
TTITLE17=How Great Thou Art
EXTD=
EXTT0=
EXTT1=
EXTT2=
EXTT3=
EXTT4=
EXTT5=
EXTT6=
EXTT7=
EXTT8=
EXTT9=
EXTT10=
EXTT11=
EXTT12=
EXTT13=
EXTT14=
EXTT15=
EXTT16=
EXTT17=
PLAYORDER=
